<?xml version="1.0" standalone="no"?>
<!DOCTYPE svg PUBLIC "-//W3C//DTD SVG 20010904//EN"
 "http://www.w3.org/TR/2001/REC-SVG-20010904/DTD/svg10.dtd">
<svg version="1.0" xmlns="http://www.w3.org/2000/svg"
 width="512.000000pt" height="512.000000pt" viewBox="0 0 512.000000 512.000000"
 preserveAspectRatio="xMidYMid meet">

<g transform="translate(0.000000,512.000000) scale(0.100000,-0.100000)"
fill="#000000" stroke="none">
<path d="M4215 5110 c-318 -48 -592 -268 -1051 -845 -183 -230 -413 -540 -534
-718 -40 -60 -76 -105 -80 -100 -9 9 -120 213 -287 523 -58 107 -169 310 -246
450 -77 140 -160 291 -184 335 -72 134 -164 199 -283 199 -53 0 -123 -17 -375
-91 -338 -100 -761 -219 -894 -253 -103 -26 -135 -41 -184 -89 -92 -86 -97
-117 -97 -592 0 -320 3 -403 14 -430 17 -40 66 -111 108 -155 24 -26 27 -35
19 -56 -29 -75 -60 -326 -100 -803 -36 -419 -43 -577 -39 -870 3 -286 3 -291
28 -340 41 -82 411 -449 550 -546 34 -23 40 -24 212 -24 l178 1 0 -142 c0
-214 23 -299 102 -369 126 -115 300 -112 418 5 77 78 90 125 90 329 l0 168 63
5 c115 10 200 66 249 167 20 41 23 64 26 199 2 83 7 152 10 152 3 0 148 -141
322 -313 344 -342 364 -358 476 -365 75 -5 149 24 197 77 34 37 193 264 287
406 28 44 57 79 62 77 6 -2 96 -85 200 -185 104 -100 199 -187 211 -194 15 -8
82 -12 209 -13 l186 0 4 -242 c3 -274 6 -282 90 -373 59 -65 115 -89 207 -88
101 0 165 27 230 99 78 85 84 116 82 381 l-2 223 90 0 c67 0 105 5 146 21 96
36 174 134 190 240 7 45 0 82 -50 269 -29 110 -86 413 -109 580 -48 355 -59
709 -31 1030 20 226 96 756 140 980 48 244 58 337 52 470 -11 245 -101 447
-269 605 -121 114 -236 172 -392 200 -94 16 -159 17 -241 5z m132 -400 c18
-10 44 -38 59 -60 26 -38 28 -49 26 -133 -1 -51 -17 -207 -36 -347 -98 -711
-126 -1049 -126 -1515 0 -417 28 -748 90 -1045 16 -80 30 -148 30 -153 0 -4
-152 -6 -337 -5 l-338 3 -7 60 c-47 371 -65 837 -49 1275 7 173 14 342 17 375
4 50 3 57 -7 40 -233 -380 -527 -864 -576 -950 -22 -38 -91 -155 -153 -260
-62 -104 -162 -274 -221 -376 -60 -102 -121 -198 -135 -213 -29 -28 -58 -33
-99 -14 -48 22 -319 372 -547 708 -244 359 -398 620 -584 990 l-108 215 -8
-45 c-50 -270 -77 -765 -60 -1077 13 -223 30 -331 65 -403 19 -38 27 -45 55
-48 29 -3 42 6 120 81 101 97 123 108 161 79 23 -18 26 -26 24 -78 -2 -47 -11
-77 -48 -151 -77 -157 -181 -245 -319 -273 -69 -14 -130 -8 -213 21 -32 11
-116 29 -188 39 -155 23 -178 32 -206 76 -90 147 -71 1134 36 1781 30 183 79
420 101 486 9 27 14 50 11 53 -2 2 -24 -7 -48 -21 -74 -42 -96 -36 -158 43
-79 98 -220 325 -221 353 0 4 33 15 73 24 39 9 128 33 197 52 69 19 242 66
385 104 245 65 261 68 273 52 8 -10 38 -67 68 -127 31 -59 89 -172 131 -250
42 -77 98 -184 126 -236 141 -269 308 -569 430 -769 113 -188 434 -671 445
-671 14 1 111 148 437 669 230 366 621 957 729 1101 229 304 392 479 496 533
68 34 158 38 207 7z"/>
</g>
</svg>
